<svg width="520" height="262" viewBox="0 0 520 262" fill="none" xmlns="http://www.w3.org/2000/svg">
<path d="M149.628 106.095C154.12 116.052 155.044 127.253 152.245 137.812C149.447 148.372 143.097 157.645 134.263 164.071C125.43 170.497 114.652 173.685 103.744 173.097C92.8365 172.509 82.464 168.182 74.3724 160.843C66.2808 153.504 60.9641 143.603 59.3168 132.804C57.6696 122.005 59.7924 110.968 65.328 101.551C70.8637 92.1338 79.4743 84.9108 89.7108 81.0975C99.9473 77.2842 111.185 77.1134 121.533 80.6139" stroke="white" stroke-width="10.0697" stroke-linecap="round"/>
<circle cx="140.941" cy="86.9689" r="6.84741" fill="white"/>
<path d="M103.704 101.671H136.647C137.355 101.671 137.718 102.518 137.23 103.031L123.054 117.935C122.902 118.094 122.691 118.185 122.471 118.185H103.173C102.855 118.185 102.55 118.31 102.324 118.533L87.3576 133.31C87.0341 133.63 86.5106 133.618 86.2013 133.285L79.4244 125.987C79.136 125.676 79.1376 125.195 79.428 124.887L99.5969 103.446C100.663 102.313 102.149 101.671 103.704 101.671Z" fill="white"/>
<path d="M92.1543 138.399L104.711 126.396C105.086 126.038 105.584 125.838 106.102 125.838H127.771C128.481 125.838 128.844 126.69 128.351 127.202L114.595 141.501C114.443 141.659 114.234 141.748 114.015 141.748H106.871C106.513 141.748 106.333 142.182 106.587 142.436L118.219 154.068C118.726 154.575 118.367 155.443 117.649 155.443H106.267C106.033 155.443 105.811 155.341 105.658 155.165L92.1019 139.508C91.8208 139.184 91.8438 138.695 92.1543 138.399Z" fill="white"/>
<path d="M381.396 130.776C381.278 127.776 380.396 125.57 378.749 124.158C377.161 122.688 375.308 121.953 373.191 121.953C371.014 121.953 369.162 122.717 367.632 124.247C366.103 125.776 365.221 127.952 364.985 130.776H381.396ZM364.632 137.481C364.809 140.481 365.691 142.892 367.279 144.716C368.867 146.539 370.985 147.451 373.632 147.451C375.338 147.451 376.867 147.039 378.22 146.216C379.573 145.392 380.455 144.304 380.867 142.951H391.807C390.572 147.069 388.396 150.245 385.278 152.48C382.161 154.715 378.455 155.833 374.161 155.833C360.75 155.833 354.045 148.539 354.045 133.952C354.045 127.717 355.721 122.747 359.074 119.041C362.427 115.335 367.22 113.482 373.455 113.482C386.043 113.482 392.337 121.482 392.337 137.481H364.632Z" fill="white"/>
<path d="M421.721 124.423C420.721 124.247 419.75 124.158 418.809 124.158C412.28 124.158 409.016 127.393 409.016 133.864V154.774H398.428V114.541H408.398V119.394C409.28 118.041 410.192 116.982 411.133 116.218C412.074 115.453 413.045 114.865 414.045 114.453C415.045 114.041 416.074 113.806 417.133 113.747C418.192 113.63 419.25 113.571 420.309 113.571H421.721V124.423ZM441.8 122.482C435.33 122.482 432.095 126.54 432.095 134.658C432.095 142.834 435.33 146.922 441.8 146.922C448.27 146.922 451.505 142.834 451.505 134.658C451.505 126.54 448.27 122.482 441.8 122.482ZM441.8 113.482C444.976 113.482 447.829 113.982 450.358 114.982C452.887 115.982 455.034 117.423 456.799 119.306C458.564 121.129 459.916 123.364 460.858 126.011C461.799 128.599 462.269 131.481 462.269 134.658C462.269 137.834 461.769 140.745 460.769 143.392C459.828 145.98 458.475 148.216 456.711 150.098C454.946 151.921 452.799 153.333 450.27 154.333C447.741 155.333 444.917 155.833 441.8 155.833C438.565 155.833 435.653 155.333 433.065 154.333C430.536 153.274 428.389 151.833 426.624 150.01C424.86 148.127 423.507 145.892 422.566 143.304C421.625 140.657 421.154 137.775 421.154 134.658C421.154 131.481 421.625 128.599 422.566 126.011C423.566 123.423 424.948 121.217 426.713 119.394C428.477 117.512 430.624 116.071 433.153 115.071C435.741 114.012 438.624 113.482 441.8 113.482Z" fill="white"/>
<path d="M223.329 110.042H196.066V122.306H219.888V131.923H196.066V154.775H184.684V100.513H223.329V110.042ZM236.377 154.775H225.789V99.8956H236.377V154.775ZM276.783 154.775H266.725V149.128C264.078 153.598 259.932 155.833 254.285 155.833C252.285 155.833 250.432 155.48 248.726 154.775C247.079 154.069 245.638 153.069 244.403 151.775C243.227 150.422 242.286 148.863 241.58 147.099C240.933 145.275 240.609 143.246 240.609 141.011V114.542H251.197V139.423C251.197 144.422 253.461 146.922 257.99 146.922C260.696 146.922 262.755 146.069 264.167 144.363C265.578 142.658 266.284 140.452 266.284 137.746V114.542H276.783V154.775ZM313.664 122.129H291.519V138.717C291.519 141.246 291.989 143.216 292.93 144.628C293.871 145.981 295.43 146.657 297.606 146.657C299.724 146.657 301.283 145.981 302.283 144.628C303.283 143.275 303.782 141.334 303.782 138.805V128.306H313.664V139.864C313.664 141.981 313.341 144.01 312.694 145.952C312.106 147.893 311.135 149.598 309.782 151.069C308.488 152.539 306.812 153.716 304.753 154.598C302.694 155.48 300.253 155.922 297.43 155.922C294.489 155.922 291.989 155.48 289.93 154.598C287.872 153.716 286.166 152.539 284.813 151.069C283.519 149.598 282.548 147.893 281.901 145.952C281.313 144.01 281.019 141.952 281.019 139.775V103.689H291.519V114.542H313.664V122.129ZM350.542 122.129H328.396V138.717C328.396 141.246 328.866 143.216 329.808 144.628C330.749 145.981 332.307 146.657 334.484 146.657C336.601 146.657 338.16 145.981 339.16 144.628C340.16 143.275 340.66 141.334 340.66 138.805V128.306H350.542V139.864C350.542 141.981 350.218 144.01 349.571 145.952C348.983 147.893 348.012 149.598 346.659 151.069C345.365 152.539 343.689 153.716 341.63 154.598C339.572 155.48 337.131 155.922 334.307 155.922C331.366 155.922 328.866 155.48 326.808 154.598C324.749 153.716 323.043 152.539 321.69 151.069C320.396 149.598 319.426 147.893 318.779 145.952C318.191 144.01 317.897 141.952 317.897 139.775V103.689H328.396V114.542H350.542V122.129Z" fill="white"/>
<path d="M397.73 110.688L391.258 114.305C388.671 112.214 383.503 107.857 373.815 107.857C364.489 107.857 358.138 111.598 356.15 114.125L350 110.688L373.765 98L397.73 110.688Z" fill="white"/>
</svg>
